<svg xmlns="http://www.w3.org/2000/svg" width="24" height="24" viewBox="0 0 24 24" fill="none" stroke="black">
  <path d="M23.4423 11.992C23.4625 12.035 23.4812 12.0749 23.4984 12.1113C23.4448 14.0095 22.0218 15.7102 19.8142 16.9728C17.5812 18.2501 14.6674 19 12 19C9.33255 19 6.41882 18.2501 4.18575 16.9728C1.97371 15.7076 0.549421 14.0026 0.501261 12.0997C0.523038 12.0507 0.55453 11.9821 0.596238 11.8962C0.690121 11.7029 0.835538 11.423 1.03812 11.0854C1.44371 10.4094 2.07583 9.50628 2.97855 8.60355C4.7778 6.8043 7.65608 5 12 5C16.364 5 19.1162 6.57014 20.8402 8.2347C22.3763 9.71785 23.1111 11.2855 23.4423 11.992Z M7.5 10.5L8.4161 9.81293C9.12964 9.27777 9.95396 8.90921 10.8286 8.73429V8.73429C11.6019 8.57963 12.3981 8.57963 13.1714 8.73429L14.0043 8.90086C14.3333 8.96666 14.652 9.07602 14.9521 9.22606V9.22606C15.315 9.4075 15.6463 9.64625 15.9331 9.93313L16.5 10.5 M7.5 13.5L8.4161 14.1871C9.12964 14.7222 9.95396 15.0908 10.8286 15.2657V15.2657C11.6019 15.4204 12.3981 15.4204 13.1714 15.2657L14.0043 15.0991C14.3333 15.0333 14.652 14.924 14.9521 14.7739V14.7739C15.315 14.5925 15.6463 14.3537 15.9331 14.0669L16.5 13.5 M 12 12 m -1.5, 0 a 1.5,1.5 0 1,0 3,0 a 1.5,1.5 0 1,0 -3,0"/>
</svg>