<svg xmlns="http://www.w3.org/2000/svg" width="24" height="24" viewBox="0 0 24 24" fill="none" stroke="black">
  <path d="M 12 12 m -11.5, 0 a 11.5,11.5 0 1,0 23,0 a 11.5,11.5 0 1,0 -23,0 M 12 18 m -1.5, 0 a 1.5,1.5 0 1,0 3,0 a 1.5,1.5 0 1,0 -3,0 M13.5 9.5C13.5 10.9762 13.2816 12.2907 12.9443 13.2182C12.7749 13.684 12.585 14.0258 12.3993 14.2418C12.2123 14.4594 12.0756 14.5 12 14.5C11.9244 14.5 11.7877 14.4594 11.6007 14.2418C11.415 14.0258 11.2251 13.684 11.0557 13.2182C10.7184 12.2907 10.5 10.9762 10.5 9.5C10.5 8.02384 10.7184 6.70932 11.0557 5.78178C11.2251 5.31596 11.415 4.97417 11.6007 4.75818C11.7877 4.54057 11.9244 4.5 12 4.5C12.0756 4.5 12.2123 4.54057 12.3993 4.75818C12.585 4.97417 12.7749 5.31596 12.9443 5.78178C13.2816 6.70932 13.5 8.02384 13.5 9.5ZM0,0 a0,0 0 0 1 0,0 h24 a0,0 0 0 1 0,0 v24 a0,0 0 0 1 0,0 h-24 a0,0 0 0 1 0,0 v-24 Z"/>
</svg>