<svg xmlns="http://www.w3.org/2000/svg" width="24" height="24" viewBox="0 0 24 24" fill="none" stroke="black">
  <path d="M4.5,16 a1.5,1.5 0 0 1 1.5,-1.5 h12 a1.5,1.5 0 0 1 1.5,1.5 v6 a1.5,1.5 0 0 1 -1.5,1.5 h-12 a-1.5,1.5 0 0 1 -1.5,-1.5 v-6 Z M7.29627 7.70373L7.26777 7.73223C6.13588 8.86412 5.5 10.3993 5.5 12V13.25V13.875V14.1875C5.5 14.3601 5.63991 14.5 5.8125 14.5H7.64858C7.84266 14.5 8 14.3427 8 14.1486V13.7972V13.0943V13.0327C8 12.1529 8.23664 11.2891 8.68495 10.532C8.89413 10.1788 9.14686 9.85314 9.43714 9.56286L9.61257 9.38743C9.86918 9.13082 10.1655 8.91726 10.4901 8.75497C11.4406 8.2797 12.5594 8.2797 13.5099 8.75497L14 9L14.4535 9.30232C15.1297 9.75311 15.6264 10.4268 15.8571 11.206C15.9519 11.5261 16 11.8582 16 12.192V13.0943V13.7972V14.1486C16 14.3427 16.1573 14.5 16.3514 14.5H17.875C18.2202 14.5 18.5 14.2202 18.5 13.875V13.25V12C18.5 10.3993 17.8641 8.86412 16.7322 7.73223L16.7037 7.70373C16.2376 7.23763 15.6994 6.84971 15.1098 6.55492L15.0199 6.50994C13.1188 5.55941 10.8812 5.55941 8.98012 6.50994L8.89016 6.55492C8.30058 6.84971 7.76238 7.23762 7.29627 7.70373Z"/>
</svg>