<svg xmlns="http://www.w3.org/2000/svg" width="24" height="24" viewBox="0 0 24 24" fill="none" stroke="black">
  <path d="M4.5,16 a1.5,1.5 0 0 1 1.5,-1.5 h12 a1.5,1.5 0 0 1 1.5,1.5 v6 a1.5,1.5 0 0 1 -1.5,1.5 h-12 a-1.5,1.5 0 0 1 -1.5,-1.5 v-6 Z M7.29627 7.70373L7.26777 7.73223C6.13588 8.86412 5.5 10.3993 5.5 12V13.25V13.875V14.1875C5.5 14.3601 5.63991 14.5 5.8125 14.5H7.64858C7.84266 14.5 8 14.3427 8 14.1486V13.7972V13.0943V13.0327C8 12.1529 8.23664 11.2891 8.68495 10.532C8.89413 10.1788 9.14686 9.85314 9.43714 9.56286L9.61257 9.38743C9.86918 9.13082 10.1655 8.91726 10.4901 8.75497C11.4406 8.2797 12.5594 8.2797 13.5099 8.75497L14 9L14.9474 9.63163C15.3045 9.86965 15.5667 10.2253 15.6885 10.6368L15.8251 11.0979C15.9328 11.4617 16.2318 11.7368 16.6033 11.8139C17.1146 11.92 17.6245 11.6266 17.7896 11.1312L17.8767 10.87C17.9572 10.6284 17.9672 10.3687 17.9054 10.1216L17.7437 9.47498C17.5843 8.837 17.2544 8.25437 16.7894 7.78937L16.5541 7.55415C16.1871 7.18712 15.7633 6.88166 15.2991 6.64952L15.0199 6.50994C13.1188 5.55941 10.8812 5.55941 8.98012 6.50994L8.89016 6.55492C8.30058 6.84971 7.76238 7.23762 7.29627 7.70373Z"/>
</svg>